<?xml version="1.0" encoding="utf-8"?>
<svg version="1.1" id="Layer_1" xmlns="http://www.w3.org/2000/svg" xmlns:xlink="http://www.w3.org/1999/xlink" x="0px" y="0px"
	 viewBox="0 0 617.9 595.3" style="enable-background:new 0 0 617.9 595.3;" xml:space="preserve">
<style type="text/css">
	.st0{fill:url(#SVGID_1_);}
	.st1{fill:url(#SVGID_2_);}
	.st2{fill:url(#SVGID_3_);}
	.st3{fill:url(#SVGID_4_);}
</style>
<g>
	<linearGradient id="SVGID_1_" gradientUnits="userSpaceOnUse" x1="158.7989" y1="297.638" x2="330.0041" y2="297.638">
		<stop  offset="0.3201" style="stop-color:#182A53"/>
		<stop  offset="0.9571" style="stop-color:#216E8C"/>
	</linearGradient>
	<path class="st0" d="M329.6,49.6c0.2,3.9,0.4,6.2,0.4,8.6c0,121.1,0.1,242.3,0,363.4c-0.1,68.2-56.1,123.9-124.3,124
		c-15,0-29.9,0-46.8,0c2.8-1.9,4-2.8,5.3-3.5c31.7-18.8,48.8-46.3,48.8-83.5c0.1-95.2,0.1-190.3-0.1-285.5c0-5.3,1.6-9,5.3-12.7
		c35.2-34.9,70.2-70,105.2-105.1C325,53.7,326.8,52.2,329.6,49.6z"/>
	<linearGradient id="SVGID_2_" gradientUnits="userSpaceOnUse" x1="60.89" y1="460.0088" x2="178.0298" y2="460.0088">
		<stop  offset="0.3201" style="stop-color:#182A53"/>
		<stop  offset="0.9571" style="stop-color:#216E8C"/>
	</linearGradient>
	<path class="st1" d="M178,460.3c-0.1,32.6-26.6,58.7-59.2,58.4c-32.1-0.3-58.2-26.9-57.9-59.1c0.3-31.8,26.8-58.2,58.3-58.1
		C151.8,401.5,178.1,427.8,178,460.3z"/>
	<linearGradient id="SVGID_3_" gradientUnits="userSpaceOnUse" x1="445.1513" y1="106.6228" x2="557" y2="106.6228">
		<stop  offset="0.3201" style="stop-color:#182A53"/>
		<stop  offset="0.9571" style="stop-color:#216E8C"/>
	</linearGradient>
	<path class="st2" d="M445.2,49.9c37.1,0,74.2,0,111.8,0c0,37.5,0,74.6,0,113.4C534.3,109.9,499.6,70.2,445.2,49.9z"/>
	<linearGradient id="SVGID_4_" gradientUnits="userSpaceOnUse" x1="394.446" y1="297.6314" x2="465.6083" y2="297.6314">
		<stop  offset="0.3201" style="stop-color:#182A53"/>
		<stop  offset="0.9571" style="stop-color:#216E8C"/>
	</linearGradient>
	<path class="st3" d="M394.4,298.8c33.8-14.5,55.9-39.6,71.2-73.6c0,49.5,0,97.1,0,144.8c-7.3-15.7-16.9-29.7-28.8-42.2
		C424.8,315.3,411.5,304.9,394.4,298.8z"/>
</g>
</svg>
